<svg version="1.0" xmlns="http://www.w3.org/2000/svg" width="1200.000000pt" height="1200.000000pt" viewBox="0 0 1200.000000 1200.000000" preserveAspectRatio="xMidYMid meet">
	<g transform="translate(0.000000,1200.000000) scale(0.100000,-0.100000)" fill="#3D56FF" stroke="none">
		<path d="M8050 6070 l0 -2560 675 0 675 0 0 2560 0 2560 -675 0 -675 0 0 -2560z"/>
		<path d="M4960 6675 c-25 -13 -53 -24 -62 -24 -10 -1 -18 -5 -18 -11 0 -5 -7 -10 -15 -10 -8 0 -52 -18 -99 -40 -46 -22 -91 -40 -100 -40 -9 0 -16 -4 -16 -10 0 -5 -7 -10 -15 -10 -8 0 -23 -4 -33 -10 -9 -5 -35 -17 -57 -26 -22 -9 -62 -27 -89 -40 -28 -13 -56 -24 -63 -24 -7 0 -13 -4 -13 -10 0 -5 -6 -10 -14 -10 -7 0 -27 -7 -42 -15 -16 -8 -37 -15 -46 -15 -10 0 -18 -4 -18 -10 0 -5 -6 -10 -14 -10 -8 0 -27 -6 -43 -14 -15 -8 -46 -22 -68 -32 -22 -9 -58 -25 -79 -35 -22 -11 -46 -19 -53 -19 -7 0 -13 -4 -13 -10 0 -5 -6 -10 -14 -10 -7 0 -27 -7 -42 -15 -16 -8 -37 -15 -46 -15 -10 0 -18 -3 -18 -7 0 -5 -21 -16 -48 -27 -26 -10 -72 -29 -102 -43 -30 -14 -64 -28 -75 -33 -74 -30 -102 -42 -117 -50 -10 -6 -25 -10 -33 -10 -8 0 -15 -3 -15 -7 0 -5 -21 -16 -48 -27 -56 -21 -102 -42 -156 -67 -22 -11 -46 -19 -53 -19 -7 0 -13 -4 -13 -10 0 -5 -16 -12 -35 -16 -19 -3 -35 -10 -35 -15 0 -5 -11 -9 -25 -9 -14 0 -25 -4 -25 -9 0 -5 -13 -12 -30 -16 -16 -4 -32 -11 -35 -16 -4 -5 -15 -9 -26 -9 -10 0 -19 -4 -19 -10 0 -5 -7 -10 -16 -10 -9 0 -28 -6 -42 -14 -15 -7 -40 -19 -57 -26 -16 -7 -43 -18 -60 -25 -16 -7 -50 -22 -75 -33 -25 -12 -67 -31 -95 -42 -27 -12 -70 -31 -95 -42 -25 -11 -54 -24 -65 -29 -11 -5 -32 -13 -47 -19 l-28 -10 0 -995 0 -995 2630 0 2630 0 0 1565 c0 861 -1 1565 -3 1565 -2 0 -27 -11 -55 -25 -29 -14 -56 -25 -60 -25 -5 0 -22 -6 -38 -14 -73 -36 -166 -76 -189 -82 -14 -3 -25 -10 -25 -15 0 -5 -7 -9 -15 -9 -8 0 -23 -4 -33 -10 -9 -5 -34 -16 -54 -25 -59 -24 -97 -40 -181 -79 -43 -20 -85 -36 -93 -36 -8 0 -14 -4 -14 -10 0 -5 -6 -10 -14 -10 -7 0 -27 -7 -42 -15 -16 -8 -37 -15 -46 -15 -10 0 -18 -4 -18 -10 0 -5 -6 -10 -14 -10 -8 0 -27 -7 -43 -15 -57 -30 -185 -85 -199 -85 -8 0 -14 -4 -14 -10 0 -5 -7 -10 -15 -10 -8 0 -23 -4 -33 -10 -22 -12 -152 -70 -157 -70 -6 0 -116 -49 -137 -60 -10 -6 -25 -10 -33 -10 -8 0 -15 -4 -15 -10 0 -5 -8 -10 -17 -10 -10 0 -27 -7 -37 -15 -11 -8 -30 -15 -43 -15 -13 0 -23 -3 -23 -7 0 -5 -21 -17 -48 -27 -71 -29 -155 -66 -174 -76 -10 -6 -25 -10 -33 -10 -8 0 -15 -4 -15 -10 0 -5 -5 -10 -11 -10 -6 0 -25 -6 -42 -14 -18 -7 -50 -21 -72 -30 -22 -9 -48 -21 -57 -26 -10 -6 -25 -10 -33 -10 -8 0 -15 -4 -15 -10 0 -5 -7 -10 -15 -10 -8 0 -38 -11 -67 -25 -28 -14 -58 -25 -65 -25 -7 0 -13 -4 -13 -10 0 -5 -16 -12 -35 -16 -19 -3 -35 -10 -35 -15 0 -5 -6 -9 -13 -9 -13 0 -59 -19 -99 -41 -10 -5 -25 -9 -33 -9 -8 0 -15 -4 -15 -9 0 -5 -16 -12 -35 -15 -19 -4 -35 -11 -35 -16 0 -6 -4 -10 -10 -10 -7 0 -10 198 -10 575 0 316 -3 575 -7 574 -5 -1 -28 -12 -53 -24z"/>
	</g>
</svg>