<svg xmlns="http://www.w3.org/2000/svg" viewBox="0 0 24 24" class="svg-logo">
	<rect rx="10" ry="10" width="100%" height="100%" fill="rgba(168, 136, 246, 1.0)"></rect>
	<g data-element="wrapper">
		<g>
			<g data-element="icon" transform="scale(0.04)">
				<path id="color_x5F_2_4_" fill="#D7A3C4" d="M269.298,310.023c0,0-3.176,34.907-10.389,64.334    c-18.846,76.892-84.822,122.609-140.215,108.191c-3.741-40.386,3.391-88.603,29.053-125.511    C51.246,334.526,80.518,187.226,17.73,142.705C17.73,142.705,215.064,135.77,269.298,310.023z M330.703,310.023    c0,0,3.176,34.907,10.389,64.334c18.846,76.892,84.822,122.609,140.215,108.191c3.741-40.386-3.391-88.603-29.053-125.511    c96.501-22.512,67.229-169.812,130.017-214.333C582.271,142.705,384.937,135.77,330.703,310.023z"></path> <path id="color_x5F_1_6_" fill="#622974" d="M325.482,328.914c4.953,11.299,7.09,23.912,7.749,36.172    c-0.258,6.169-0.996,12.3-1.681,18.284c-1.471,5.911-3.111,11.729-4.844,17.415c3.485-23.934-0.663-47.186-11.189-67.485    c-4.182-8.368-9.153-16.606-14.158-24.979c-5.267,10.621-10.014,21.169-12.908,32.307c-6.383,21.581-6.042,44.776-3.145,67.742    c2.624,23.103,8.46,46.003,13.701,69.315c-5.162-10.727-9.954-21.692-14.413-32.833c-3.612-11.42-8.015-22.702-9.988-34.714    c-5.26-23.532-6.424-49.034,0.408-73.235c4.167-15.186,11.313-28.778,18.774-41.777c-4.496-7.983-8.812-16.166-12.2-25.017    c-9.149-23.237-11.118-49.188-6.836-73.244c3.422-24.392,13.578-46.698,24.254-67.969c-5.69,23.272-12.088,46.111-13.484,69.263    c-1.842,23.01,0.547,45.847,9.067,66.919c2.018,5.521,4.466,10.91,7.116,16.266c1.801-3.072,3.639-6.164,5.334-9.204    c11.272-20.102,18.467-42.317,19.665-66.342c0.696,5.892,1.276,11.88,1.677,17.917c-0.27,5.989-0.408,12.102-1.026,18.182    c-2.078,11.98-5.316,24.071-10.542,35.034c-2.647,5.947-5.488,11.685-8.348,17.333C314.42,305.336,320.63,316.594,325.482,328.914z     M292.943,235.351c0,5.858,4.751,10.606,10.605,10.606c5.859,0,10.609-4.749,10.609-10.606c0-5.857-4.75-10.605-10.609-10.605    C297.694,224.746,292.943,229.495,292.943,235.351z M600,114.807c-80.385,52.843-44.878,195.3-138.521,224.479    c25.235,44.416,26.784,85.358,23.693,124.758c-71.899,17.103-134.938-47.661-138.887-108.39    c8.591,64.428,74.162,113.975,130.951,101.535c2.362-40.021-5.769-81.78-27.414-114.712c-155.23,9.447-61.826-120.971,3.695-15.108    c87.865-31.586,62.999-148.345,113.405-200.296c-107.943,2.963-205.284,65.956-236.218,161.073    c30.044-116.194,149.692-172.723,251.773-173.237L600,114.807z M440.868,330.475c-61.184-70.69-87.638-2.673-23.689,1.408    C424.891,332.662,432.883,332.001,440.868,330.475z M0,114.807c80.385,52.843,44.878,195.3,138.521,224.479    c-25.235,44.416-26.785,85.358-23.693,124.758c71.899,17.103,134.937-47.661,138.887-108.39    c-8.591,64.428-74.161,113.975-130.951,101.535c-2.362-40.021,5.769-81.78,27.414-114.712c155.23,9.447,61.826-120.971-3.695-15.108    C58.618,295.783,83.484,179.023,33.077,127.072c107.943,2.963,205.284,65.956,236.218,161.073    C239.252,171.952,119.604,115.423,17.523,114.909L0,114.807z M159.132,330.475c61.184-70.69,87.638-2.673,23.689,1.408    C175.109,332.662,167.117,332.001,159.132,330.475z"></path>
			</g>
		</g>
	</g>
</svg>